<?xml version="1.0" encoding="UTF-8" standalone="no"?><svg xmlns:svg="http://www.w3.org/2000/svg" xmlns="http://www.w3.org/2000/svg" xmlns:xlink="http://www.w3.org/1999/xlink" version="1.0" width="356" height="102.40186666673237" viewBox="0 0 356 102.40186666673237" class="css-1j8o68f"  xml:space="preserve"><defs id="SvgjsDefs1207"></defs><g id="SvgjsG1208" featurekey="symbolFeature-0" transform="matrix(0.134553479793285,0,0,0.134553479793285,-18.946278061368837,-16.067376439557574)" fill="#c8e8da"><g xmlns="http://www.w3.org/2000/svg"><path d="M552.6,185.7l171.7,178.6l0,0c-0.9,6.3-0.7,12.9,0.9,19.5c6.7,27.3,34.4,44,61.7,37.3   c27.3-6.7,44-34.4,37.3-61.7c-6.7-27.2-34.3-43.9-61.5-37.3l0,0L585.4,137.5c-14.5-15.1-36.2-21.4-56.6-16.4l-264.5,65.3   c-20.4,5-36.7,20.7-42.5,40.8l-80.1,276.8c-1.1,3.8-1.2,7.9-0.2,11.7c0.9,3.8,2.9,7.4,5.7,10.3c5.7,5.9,13.8,8.3,21.8,6.3l7.1-1.8   c11.6-2.9,20.8-11.7,24.1-23.2l73.1-252.7c2.3-7.8,8.5-13.8,16.4-15.8l241.1-59.5C538.6,177.5,547,179.9,552.6,185.7z M779,339   L779,339c13.1,1.7,24.4,11.2,27.7,24.7c0.4,1.6,0.7,3.3,0.8,4.9l0,0c0.2,2,0.2,4,0,6c-1.3,13.6-10.9,25.4-24.9,28.9   c-15.3,3.8-30.8-3.9-37.5-17.5c-1-2-1.8-4.2-2.4-6.5c-4.4-17.6,6.4-35.5,24.1-39.9C771,338.6,775.1,338.4,779,339z"></path><path d="M803,773.2l80.1-276.9c1.1-3.9,1.2-8,0.3-11.9c-1-3.9-2.9-7.5-5.7-10.4c-5.7-6-14-8.3-22-6.4l-9.8,2.4   c-9.6,2.4-17.3,9.7-20,19.2l-74.2,256.4c-2.2,7.5-8.2,13.2-15.7,15.1l-242.3,59.8c-7.5,1.9-15.5-0.5-20.9-6.1L308.4,639.8   c1.8-7.6,1.9-15.8-0.1-23.9c-6.7-27.3-34.4-44-61.7-37.3c-27.3,6.7-44,34.4-37.3,61.7c6.1,24.7,29.4,40.8,54,38.6l176.7,183.8   c14.3,14.9,35.6,21,55.6,16.1l265.7-65.6C781.3,808.4,797.3,793,803,773.2z M241.2,656c-4.5-2.8-8.3-6.7-11-11.4   c-1.5-2.6-2.7-5.5-3.4-8.5c-0.1-0.3-0.2-0.7-0.2-1c-3.7-17.3,7-34.6,24.3-38.9c17.6-4.4,35.5,6.4,39.9,24.1c0.4,1.7,0.7,3.4,0.8,5   c1.4,15.9-8.9,30.9-24.9,34.8C257.6,662.3,248.5,660.6,241.2,656z"></path><path d="M482,642.3L386.7,254c-1.7-6.8,11-13,18.7-9.1l18.1,9.2c14.5,7.3,24,18.2,27.1,31.1l94.6,385.4   c1.7,6.8-11,13-18.7,9.1l-21.3-10.8C492.9,662.6,484.7,653.3,482,642.3z"></path><path d="M374.3,510l-59-240.4c-1-4.2,11.9-9.3,19.1-7.5l16.9,4.3c13.5,3.4,21.9,9.6,23.8,17.5l58.6,238.7   c1,4.2-11.9,9.3-19.1,7.5l-19.9-5C383.1,522.1,376,516.9,374.3,510z"></path><path d="M657.7,723.4l-59-240.4c-1-4.2,11.9-9.3,19.1-7.5l16.9,4.3c13.5,3.4,21.9,9.6,23.8,17.5l58.6,238.7   c1,4.2-11.9,9.3-19.1,7.5l-19.9-5C666.5,735.4,659.4,730.2,657.7,723.4z"></path><path d="M585,713.8l-95.3-388.2c-1.7-6.8,11-13,18.7-9.1l18.1,9.2c14.5,7.3,24,18.2,27.1,31.1l94.6,385.4   c1.7,6.8-11,13-18.7,9.1l-21.3-10.8C595.9,734.1,587.7,724.7,585,713.8z"></path></g></g><g id="SvgjsG1209" featurekey="textGroupContainer" transform="matrix(1,0,0,1,355,9)" fill="#c8e8da"><rect xmlns="http://www.w3.org/2000/svg" y="0" height="1" width="1" opacity="0"></rect><rect xmlns="http://www.w3.org/2000/svg" y="0" x="-235" width="3" height="84"></rect></g><g id="SvgjsG1210" featurekey="vMvB0T-0" transform="matrix(2.9664788702430296,0,0,2.9664788702430296,133.550282755531,12.141791599608638)" fill="#c8e8da"><path d="M4.66 15.96 l-0.02 1.44 l0 0.02 q0.92 -0.04 1.48 -0.04 l4.64 0 q0 0.74 -0.06 1.14 q-0.24 1.54 -2.04 1.54 l-5.32 0 q-0.86 0 -1.35 -0.5 t-0.49 -1.36 l0 -11.72 l0.14 -0.14 l8.62 0 q0.12 0.58 0.12 1.26 t-0.28 1.42 l-5.46 0 l0.02 1.44 l0 1.4 q0.52 -0.02 1.36 -0.02 l3.06 0 q0.18 0.56 0.18 1.28 t-0.18 1.32 l-4.42 0 l0 1.52 z M19.92 11.78 l0 -0.24 q0 -2.96 -2.2 -2.96 q-1.26 0 -1.82 1.15 t-0.56 3.39 q0 2.22 0.7 3.3 t2.04 1.08 q0.7 0 1.55 -0.33 t1.85 -1.05 q0.5 0.34 0.93 0.93 t0.53 1.13 q-0.46 0.44 -1.07 0.83 t-1.32 0.67 t-1.48 0.45 t-1.55 0.17 q-1.54 0 -2.6 -0.59 t-1.71 -1.57 t-0.94 -2.26 t-0.29 -2.66 q0 -1.8 0.45 -3.15 t1.22 -2.25 t1.81 -1.35 t2.22 -0.45 q1.2 0 2.18 0.32 t1.67 0.88 t1.06 1.32 t0.37 1.64 q0 1.78 -1.82 1.78 q-0.54 0 -1.22 -0.18 z M27.82 16.28 q0.54 1.56 2.18 1.56 q0.82 0 1.33 -0.41 t0.8 -1.04 t0.39 -1.41 t0.1 -1.54 q0 -0.7 -0.05 -1.56 t-0.29 -1.61 t-0.76 -1.26 t-1.52 -0.51 q-0.96 0 -1.47 0.49 t-0.76 1.21 t-0.31 1.53 t-0.06 1.43 q0 0.92 0.09 1.64 t0.33 1.48 z M26.2 19.04 q-2.14 -1.78 -2.14 -5.86 q0 -1.76 0.41 -3.09 t1.18 -2.23 t1.87 -1.36 t2.48 -0.46 t2.49 0.46 t1.88 1.37 t1.18 2.24 t0.41 3.07 t-0.41 3.07 t-1.18 2.23 t-1.88 1.36 t-2.49 0.46 q-2.28 0 -3.8 -1.26 z M37.78 19.96 l1.06 -13.6 q0.88 -0.16 2.08 -0.16 t2.1 0.16 l1.18 4.9 q0.7 3.32 0.74 3.62 l0.14 0 q0.08 -0.5 0.74 -3.62 l1.2 -4.9 q0.88 -0.16 2.08 -0.16 t2.1 0.16 l1.06 13.6 q-0.62 0.16 -1.53 0.16 t-1.49 -0.1 l-0.32 -5.56 q-0.14 -3.32 -0.16 -4.62 l-0.12 0 l-1.98 8.14 q-0.72 0.12 -1.65 0.12 t-1.65 -0.12 l-1.96 -8.14 l-0.14 0 q0 1.78 -0.16 4.62 l-0.3 5.56 q-0.58 0.1 -1.49 0.1 t-1.53 -0.16 z M54.440000000000005 19.96 l1.06 -13.6 q0.88 -0.16 2.08 -0.16 t2.1 0.16 l1.18 4.9 q0.7 3.32 0.74 3.62 l0.14 0 q0.08 -0.5 0.74 -3.62 l1.2 -4.9 q0.88 -0.16 2.08 -0.16 t2.1 0.16 l1.06 13.6 q-0.62 0.16 -1.53 0.16 t-1.49 -0.1 l-0.32 -5.56 q-0.14 -3.32 -0.16 -4.62 l-0.12 0 l-1.98 8.14 q-0.72 0.12 -1.65 0.12 t-1.65 -0.12 l-1.96 -8.14 l-0.14 0 q0 1.78 -0.16 4.62 l-0.3 5.56 q-0.58 0.1 -1.49 0.1 t-1.53 -0.16 z"></path></g></svg>